<svg width="100%" height="100%" viewBox="0 0 90 60" version="1.1" xmlns="http://www.w3.org/2000/svg" xmlns:xlink="http://www.w3.org/1999/xlink" xml:space="preserve" xmlns:serif="http://www.serif.com/" style="fill-rule:evenodd;clip-rule:evenodd;stroke-linejoin:round;stroke-miterlimit:1.41421;"><path d="M86.493,8.214c-0.426,1.28 -1.866,1.92 -4.32,1.92c-2.453,0 -5.333,1.6 -8.64,4.8c-3.306,3.2 -4.96,7.787 -4.96,13.76l0.32,2.24c1.28,-1.066 3.467,-1.6 6.56,-1.6c3.094,0 5.76,1.174 8,3.52c2.24,2.347 3.36,5.654 3.36,9.92c0,4.267 -1.706,8.054 -5.12,11.36c-3.413,3.307 -7.466,4.96 -12.16,4.96c-9.813,0 -14.72,-6.293 -14.72,-18.88c0,-12.586 2.88,-22.293 8.64,-29.12c5.76,-6.826 13.014,-10.24 21.76,-10.24c1.707,0 2.347,0.64 1.92,1.92l-0.64,5.44Zm-52.16,0c-0.213,1.28 -1.6,1.92 -4.16,1.92c-2.56,0 -5.493,1.654 -8.8,4.96c-3.306,3.307 -4.96,7.84 -4.96,13.6l0.32,2.24c1.28,-1.066 3.52,-1.6 6.72,-1.6c3.2,0 5.92,1.174 8.16,3.52c2.24,2.347 3.36,5.654 3.36,9.92c0,4.267 -1.706,8.054 -5.12,11.36c-3.413,3.307 -7.573,4.96 -12.48,4.96c-9.813,0 -14.72,-6.293 -14.72,-18.88c0,-12.586 2.934,-22.293 8.8,-29.12c5.867,-6.826 13.174,-10.24 21.92,-10.24c1.707,0 2.347,0.64 1.92,1.92l-0.96,5.44Z" style="fill:#775252;fill-rule:nonzero;stroke:#775252;stroke-width:1px;"/></svg>